<?xml version="1.0" encoding="UTF-8"?><svg id="Layer_1" xmlns="http://www.w3.org/2000/svg" viewBox="0 0 2000 550"><path d="M166.22,1229.8c-364.13,0-658.78-294.65-658.78-658.78S-197.91-87.76,166.22-87.76,825,206.89,825,571.02s-294.65,658.78-658.78,658.78Z" style="fill:none; stroke:#0069a8; stroke-miterlimit:10;"/><path d="M783.83,571.02C783.83,229.65,507.59-46.59,166.22-46.59S-451.38,229.65-451.38,571.02-175.15,1188.62,166.22,1188.62s617.6-276.23,617.6-617.6Z" style="fill:none; stroke:#0069a8; stroke-miterlimit:10;"/><path d="M166.22,1147.45c-318.61,0-576.43-257.82-576.43-576.43S-152.39-5.41,166.22-5.41,742.65,252.41,742.65,571.02s-257.82,576.43-576.43,576.43Z" style="fill:none; stroke:#0069a8; stroke-miterlimit:10;"/><path d="M701.48,571.02c0-295.86-239.4-535.26-535.26-535.26S-369.04,275.16-369.04,571.02s239.4,535.26,535.26,535.26,535.26-239.4,535.26-535.26Z" style="fill:none; stroke:#0069a8; stroke-miterlimit:10;"/><path d="M166.22,1065.1c-273.1,0-494.08-220.99-494.08-494.08S-106.88,76.94,166.22,76.94s494.08,220.99,494.08,494.08-220.99,494.08-494.08,494.08Z" style="fill:none; stroke:#0069a8; stroke-miterlimit:10;"/><path d="M619.13,571.02c0-250.34-202.57-452.91-452.91-452.91s-452.91,202.57-452.91,452.91,202.57,452.91,452.91,452.91,452.91-202.57,452.91-452.91Z" style="fill:none; stroke:#0069a8; stroke-miterlimit:10;"/><path d="M166.22,982.76c-227.58,0-411.74-184.16-411.74-411.74S-61.36,159.28,166.22,159.28s411.74,184.16,411.74,411.74-184.16,411.74-411.74,411.74Z" style="fill:none; stroke:#0069a8; stroke-miterlimit:10;"/><path d="M536.78,571.02c0-204.82-165.74-370.56-370.56-370.56s-370.56,165.74-370.56,370.56S-38.6,941.58,166.22,941.58s370.56-165.74,370.56-370.56Z" style="fill:none; stroke:#0069a8; stroke-miterlimit:10;"/><path d="M166.22,900.41c-182.06,0-329.39-147.32-329.39-329.39S-15.84,241.63,166.22,241.63s329.39,147.32,329.39,329.39-147.32,329.39-329.39,329.39Z" style="fill:none; stroke:#0069a8; stroke-miterlimit:10;"/><path d="M454.44,571.02c0-159.31-128.91-288.22-288.22-288.22S-121.99,411.71-121.99,571.02,6.91,859.23,166.22,859.23s288.22-128.91,288.22-288.22Z" style="fill:none; stroke:#0069a8; stroke-miterlimit:10;"/><path d="M166.22,818.06c-136.55,0-247.04-110.49-247.04-247.04s110.49-247.04,247.04-247.04,247.04,110.49,247.04,247.04-110.49,247.04-247.04,247.04Z" style="fill:none; stroke:#0069a8; stroke-miterlimit:10;"/><path d="M372.09,571.02c0-113.79-92.08-205.87-205.87-205.87s-205.87,92.08-205.87,205.87,92.08,205.87,205.87,205.87,205.87-92.08,205.87-205.87Z" style="fill:none; stroke:#0069a8; stroke-miterlimit:10;"/><path d="M166.22,735.71c-91.03,0-164.69-73.66-164.69-164.69s73.66-164.69,164.69-164.69,164.69,73.66,164.69,164.69-73.66,164.69-164.69,164.69Z" style="fill:none; stroke:#0069a8; stroke-miterlimit:10;"/><path d="M289.74,571.02c0-68.27-55.25-123.52-123.52-123.52s-123.52,55.25-123.52,123.52,55.25,123.52,123.52,123.52,123.52-55.25,123.52-123.52Z" style="fill:none; stroke:#0069a8; stroke-miterlimit:10;"/><path d="M166.22,653.37c-45.52,0-82.35-36.83-82.35-82.35s36.83-82.35,82.35-82.35,82.35,36.83,82.35,82.35-36.83,82.35-82.35,82.35Z" style="fill:none; stroke:#0069a8; stroke-miterlimit:10;"/><path d="M207.39,571.02c0-22.76-18.42-41.17-41.17-41.17s-41.17,18.42-41.17,41.17,18.42,41.17,41.17,41.17,41.17-18.42,41.17-41.17Z" style="fill:none; stroke:#0069a8; stroke-miterlimit:10;"/><path d="M1771.07,636.01c-364.13,0-658.78-294.65-658.78-658.78s294.65-658.78,658.78-658.78S2429.85-386.9,2429.85-22.77s-294.65,658.78-658.78,658.78Z" style="fill:none; stroke:#0069a8; stroke-miterlimit:10;"/><path d="M2388.68-22.77c0-341.37-276.23-617.6-617.6-617.6S1153.47-364.14,1153.47-22.77s276.23,617.6,617.6,617.6S2388.68,318.6,2388.68-22.77Z" style="fill:none; stroke:#0069a8; stroke-miterlimit:10;"/><path d="M1771.07,553.66c-318.61,0-576.43-257.82-576.43-576.43s257.82-576.43,576.43-576.43S2347.51-341.38,2347.51-22.77s-257.82,576.43-576.43,576.43Z" style="fill:none; stroke:#0069a8; stroke-miterlimit:10;"/><path d="M2306.33-22.77c0-295.86-239.4-535.26-535.26-535.26S1235.82-318.62,1235.82-22.77s239.4,535.26,535.26,535.26,535.26-239.4,535.26-535.26Z" style="fill:none; stroke:#0069a8; stroke-miterlimit:10;"/><path d="M1771.07,471.31c-273.1,0-494.08-220.99-494.08-494.08s220.99-494.08,494.08-494.08,494.08,220.99,494.08,494.08-220.99,494.08-494.08,494.08Z" style="fill:none; stroke:#0069a8; stroke-miterlimit:10;"/><path d="M2223.98-22.77c0-250.34-202.57-452.91-452.91-452.91s-452.91,202.57-452.91,452.91,202.57,452.91,452.91,452.91,452.91-202.57,452.91-452.91Z" style="fill:none; stroke:#0069a8; stroke-miterlimit:10;"/><path d="M1771.07,388.97c-227.58,0-411.74-184.16-411.74-411.74s184.16-411.74,411.74-411.74,411.74,184.16,411.74,411.74-184.16,411.74-411.74,411.74Z" style="fill:none; stroke:#0069a8; stroke-miterlimit:10;"/><path d="M2141.64-22.77c0-204.82-165.74-370.56-370.56-370.56s-370.56,165.74-370.56,370.56,165.74,370.56,370.56,370.56,370.56-165.74,370.56-370.56Z" style="fill:none; stroke:#0069a8; stroke-miterlimit:10;"/><path d="M1771.07,306.62c-182.06,0-329.39-147.32-329.39-329.39s147.32-329.39,329.39-329.39,329.39,147.32,329.39,329.39-147.32,329.39-329.39,329.39Z" style="fill:none; stroke:#0069a8; stroke-miterlimit:10;"/><path d="M2059.29-22.77c0-159.31-128.91-288.22-288.22-288.22s-288.22,128.91-288.22,288.22,128.91,288.22,288.22,288.22,288.22-128.91,288.22-288.22Z" style="fill:none; stroke:#0069a8; stroke-miterlimit:10;"/><path d="M1771.07,224.27c-136.55,0-247.04-110.49-247.04-247.04s110.49-247.04,247.04-247.04,247.04,110.49,247.04,247.04-110.49,247.04-247.04,247.04Z" style="fill:none; stroke:#0069a8; stroke-miterlimit:10;"/><path d="M1976.94-22.77c0-113.79-92.08-205.87-205.87-205.87s-205.87,92.08-205.87,205.87,92.08,205.87,205.87,205.87,205.87-92.08,205.87-205.87Z" style="fill:none; stroke:#0069a8; stroke-miterlimit:10;"/><path d="M1771.07,141.93c-91.03,0-164.69-73.66-164.69-164.69s73.66-164.69,164.69-164.69,164.69,73.66,164.69,164.69-73.66,164.69-164.69,164.69Z" style="fill:none; stroke:#0069a8; stroke-miterlimit:10;"/><path d="M1894.6-22.77c0-68.27-55.25-123.52-123.52-123.52s-123.52,55.25-123.52,123.52,55.25,123.52,123.52,123.52,123.52-55.25,123.52-123.52Z" style="fill:none; stroke:#0069a8; stroke-miterlimit:10;"/><path d="M1771.07,59.58c-45.52,0-82.35-36.83-82.35-82.35s36.83-82.35,82.35-82.35,82.35,36.83,82.35,82.35-36.83,82.35-82.35,82.35Z" style="fill:none; stroke:#0069a8; stroke-miterlimit:10;"/><path d="M1812.25-22.77c0-22.76-18.42-41.17-41.17-41.17s-41.17,18.42-41.17,41.17,18.42,41.17,41.17,41.17S1812.25-.01,1812.25-22.77Z" style="fill:none; stroke:#0069a8; stroke-miterlimit:10;"/></svg>